<svg version="1.1" xmlns="http://www.w3.org/2000/svg" xmlns:xlink="http://www.w3.org/1999/xlink" width="723" height="571"><defs/><g><g transform="translate(-142,-78) scale(1,1)"><rect fill="#ffebd8" stroke="none" x="312" y="88" width="543" height="111"/></g><g transform="translate(-142,-78) scale(1,1)"><path fill="none" stroke="#000000" d="M 312 88 L 855 88 L 855 199 L 312 199 L 312 88 Z Z" stroke-miterlimit="10"/></g><g transform="translate(-142,-78) scale(1,1)"><rect fill="#ffd6ad" stroke="none" x="312" y="208" width="543" height="199"/></g><g transform="translate(-142,-78) scale(1,1)"><path fill="none" stroke="#000000" d="M 312 208 L 855 208 L 855 407 L 312 407 L 312 208 Z Z" stroke-miterlimit="10"/></g><g transform="translate(-142,-78) scale(1,1)"><rect fill="#ffc082" stroke="none" x="312" y="416" width="543" height="111"/></g><g transform="translate(-142,-78) scale(1,1)"><path fill="none" stroke="#000000" d="M 312 416 L 855 416 L 855 527 L 312 527 L 312 416 Z Z" stroke-miterlimit="10"/></g><g transform="translate(-142,-78) scale(1,1)"><rect fill="#ffaa56" stroke="none" x="312" y="536" width="543" height="103"/></g><g transform="translate(-142,-78) scale(1,1)"><path fill="none" stroke="#000000" d="M 312 536 L 855 536 L 855 639 L 312 639 L 312 536 Z Z" stroke-miterlimit="10"/></g><g transform="translate(-142,-78) scale(1,1)"><rect fill="#d8f2ff" stroke="none" x="152" y="88" width="136" height="112"/></g><g transform="translate(-142,-78) scale(1,1)"><path fill="none" stroke="#000000" d="M 152 88 L 288 88 L 288 200 L 152 200 L 152 88 Z Z" stroke-miterlimit="10"/></g><g transform="translate(-142,-78) scale(1,1)"><g><path fill="none" stroke="none"/><text fill="#000000" stroke="none" font-family="Arial" font-size="13px" font-style="normal" font-weight="normal" text-decoration="none" x="196" y="111">Externo</text></g></g><g transform="translate(-142,-78) scale(1,1)"><path fill="#C0C0C0" stroke="none" d="M 207.639501953125 127 L 235.07950195312503 127 L 246.83950195312502 138.76 L 246.83950195312502 176 L 207.639501953125 176" opacity="0.2"/></g><g transform="translate(-142,-78) scale(1,1)"><path fill="#ffffff" stroke="none" d="M 200.63950195312498 120 L 228.079501953125 120 L 239.83950195312502 131.76000000000002 L 239.83950195312502 169 L 200.63950195312498 169"/></g><g transform="translate(-142,-78) scale(1,1)"><path fill="none" stroke="#000000" d="M 200.63950195312498 120 L 228.079501953125 120 L 239.83950195312502 131.76000000000002 L 239.83950195312502 169 L 200.63950195312498 169 L 200.63950195312498 120" stroke-miterlimit="10"/></g><g transform="translate(-142,-78) scale(1,1)"><path fill="none" stroke="#000000" d="M 228.079501953125 120 L 228.079501953125 131.76000000000002 L 239.83950195312502 131.76000000000002 L 228.079501953125 120" stroke-miterlimit="10"/></g><g transform="translate(-142,-78) scale(1,1)"><g><path fill="none" stroke="none"/><text fill="#000000" stroke="none" font-family="Arial" font-size="13px" font-style="normal" font-weight="bold" text-decoration="none" x="177.989501953125" y="187">GeradoNfApp</text><path fill="none" stroke="#000000" d="M 262.489501953125 188.5 L 177.989501953125 188.5" stroke-miterlimit="10"/></g></g><g transform="translate(-142,-78) scale(1,1)"><path fill="#C0C0C0" stroke="none" d="M 386.81845703125 127 L 414.25845703125 127 L 426.01845703124997 138.76 L 426.01845703124997 176 L 386.81845703125 176" opacity="0.2"/></g><g transform="translate(-142,-78) scale(1,1)"><path fill="#ff7f00" stroke="none" d="M 379.81845703125 120 L 407.25845703125003 120 L 419.01845703125 131.76000000000002 L 419.01845703125 169 L 379.81845703125 169"/></g><g transform="translate(-142,-78) scale(1,1)"><path fill="none" stroke="#000000" d="M 379.81845703125 120 L 407.25845703125003 120 L 419.01845703125 131.76000000000002 L 419.01845703125 169 L 379.81845703125 169 L 379.81845703125 120" stroke-miterlimit="10"/></g><g transform="translate(-142,-78) scale(1,1)"><path fill="none" stroke="#000000" d="M 407.25845703125003 120 L 407.25845703125003 131.76000000000002 L 419.01845703125 131.76000000000002 L 407.25845703125003 120" stroke-miterlimit="10"/></g><g transform="translate(-142,-78) scale(1,1)"><g><path fill="none" stroke="none"/><text fill="#000000" stroke="none" font-family="Arial" font-size="13px" font-style="normal" font-weight="bold" text-decoration="none" x="351.5" y="187">IngestorWorker</text><path fill="none" stroke="#000000" d="M 447.3369140625 188.5 L 351.5 188.5" stroke-miterlimit="10"/></g></g><g transform="translate(-142,-78) scale(1,1)"><path fill="#C0C0C0" stroke="none" d="M 386.4 335 L 413.84 335 L 425.59999999999997 346.76 L 425.59999999999997 384 L 386.4 384" opacity="0.2"/></g><g transform="translate(-142,-78) scale(1,1)"><path fill="#ff7f00" stroke="none" d="M 379.4 328 L 406.84000000000003 328 L 418.6 339.76 L 418.6 377 L 379.4 377"/></g><g transform="translate(-142,-78) scale(1,1)"><path fill="none" stroke="#000000" d="M 379.4 328 L 406.84000000000003 328 L 418.6 339.76 L 418.6 377 L 379.4 377 L 379.4 328" stroke-miterlimit="10"/></g><g transform="translate(-142,-78) scale(1,1)"><path fill="none" stroke="#000000" d="M 406.84000000000003 328 L 406.84000000000003 339.76 L 418.6 339.76 L 406.84000000000003 328" stroke-miterlimit="10"/></g><g transform="translate(-142,-78) scale(1,1)"><g><path fill="none" stroke="none"/><text fill="#000000" stroke="none" font-family="Arial" font-size="13px" font-style="normal" font-weight="bold" text-decoration="none" x="357.943359375" y="395">NfExpWorker</text><path fill="none" stroke="#000000" d="M 440.056640625 396.5 L 357.943359375 396.5" stroke-miterlimit="10"/></g></g><g transform="translate(-142,-78) scale(1,1)"><path fill="#C0C0C0" stroke="none" d="M 386.639501953125 247 L 414.079501953125 247 L 425.83950195312497 258.76 L 425.83950195312497 296 L 386.639501953125 296" opacity="0.2"/></g><g transform="translate(-142,-78) scale(1,1)"><path fill="#ff7f00" stroke="none" d="M 379.639501953125 240 L 407.07950195312503 240 L 418.839501953125 251.76000000000002 L 418.839501953125 289 L 379.639501953125 289"/></g><g transform="translate(-142,-78) scale(1,1)"><path fill="none" stroke="#000000" d="M 379.639501953125 240 L 407.07950195312503 240 L 418.839501953125 251.76000000000002 L 418.839501953125 289 L 379.639501953125 289 L 379.639501953125 240" stroke-miterlimit="10"/></g><g transform="translate(-142,-78) scale(1,1)"><path fill="none" stroke="#000000" d="M 407.07950195312503 240 L 407.07950195312503 251.76000000000002 L 418.839501953125 251.76000000000002 L 407.07950195312503 240" stroke-miterlimit="10"/></g><g transform="translate(-142,-78) scale(1,1)"><g><path fill="none" stroke="none"/><text fill="#000000" stroke="none" font-family="Arial" font-size="13px" font-style="normal" font-weight="bold" text-decoration="none" x="358.1796875" y="307">NfNacWorker</text><path fill="none" stroke="#000000" d="M 440.29931640625 308.5 L 358.1796875 308.5" stroke-miterlimit="10"/></g></g><g transform="translate(-142,-78) scale(1,1)"><path fill="#C0C0C0" stroke="none" d="M 499.639501953125 247 L 527.079501953125 247 L 538.839501953125 258.76 L 538.839501953125 296 L 499.639501953125 296" opacity="0.2"/></g><g transform="translate(-142,-78) scale(1,1)"><path fill="#ff7f00" stroke="none" d="M 492.639501953125 240 L 520.079501953125 240 L 531.839501953125 251.76000000000002 L 531.839501953125 289 L 492.639501953125 289"/></g><g transform="translate(-142,-78) scale(1,1)"><path fill="none" stroke="#000000" d="M 492.639501953125 240 L 520.079501953125 240 L 531.839501953125 251.76000000000002 L 531.839501953125 289 L 492.639501953125 289 L 492.639501953125 240" stroke-miterlimit="10"/></g><g transform="translate(-142,-78) scale(1,1)"><path fill="none" stroke="#000000" d="M 520.079501953125 240 L 520.079501953125 251.76000000000002 L 531.839501953125 251.76000000000002 L 520.079501953125 240" stroke-miterlimit="10"/></g><g transform="translate(-142,-78) scale(1,1)"><g><path fill="none" stroke="none"/><text fill="#000000" stroke="none" font-family="Arial" font-size="13px" font-style="normal" font-weight="bold" text-decoration="none" x="471.5478515625" y="307">NfImpWorker</text><path fill="none" stroke="#000000" d="M 552.93115234375 308.5 L 471.5478515625 308.5" stroke-miterlimit="10"/></g></g><g transform="translate(-142,-78) scale(1,1)"><path fill="#C0C0C0" stroke="none" d="M 499.861669921875 335 L 527.301669921875 335 L 539.061669921875 346.76 L 539.061669921875 384 L 499.861669921875 384" opacity="0.2"/></g><g transform="translate(-142,-78) scale(1,1)"><path fill="#ff7f00" stroke="none" d="M 492.861669921875 328 L 520.301669921875 328 L 532.061669921875 339.76 L 532.061669921875 377 L 492.861669921875 377"/></g><g transform="translate(-142,-78) scale(1,1)"><path fill="none" stroke="#000000" d="M 492.861669921875 328 L 520.301669921875 328 L 532.061669921875 339.76 L 532.061669921875 377 L 492.861669921875 377 L 492.861669921875 328" stroke-miterlimit="10"/></g><g transform="translate(-142,-78) scale(1,1)"><path fill="none" stroke="#000000" d="M 520.301669921875 328 L 520.301669921875 339.76 L 532.061669921875 339.76 L 520.301669921875 328" stroke-miterlimit="10"/></g><g transform="translate(-142,-78) scale(1,1)"><g><path fill="none" stroke="none"/><text fill="#000000" stroke="none" font-family="Arial" font-size="13px" font-style="normal" font-weight="bold" text-decoration="none" x="459.5" y="395">NfMonitorWorker</text><path fill="none" stroke="#000000" d="M 565.42333984375 396.5 L 459.5 396.5" stroke-miterlimit="10"/></g></g><g transform="translate(-142,-78) scale(1,1)"><path fill="#C0C0C0" stroke="none" d="M 386.639501953125 458 L 414.079501953125 458 L 425.83950195312497 469.76 L 425.83950195312497 507 L 386.639501953125 507" opacity="0.2"/></g><g transform="translate(-142,-78) scale(1,1)"><path fill="#ff7f00" stroke="none" d="M 379.639501953125 451 L 407.07950195312503 451 L 418.839501953125 462.76 L 418.839501953125 500 L 379.639501953125 500"/></g><g transform="translate(-142,-78) scale(1,1)"><path fill="none" stroke="#000000" d="M 379.639501953125 451 L 407.07950195312503 451 L 418.839501953125 462.76 L 418.839501953125 500 L 379.639501953125 500 L 379.639501953125 451" stroke-miterlimit="10"/></g><g transform="translate(-142,-78) scale(1,1)"><path fill="none" stroke="#000000" d="M 407.07950195312503 451 L 407.07950195312503 462.76 L 418.839501953125 462.76 L 407.07950195312503 451" stroke-miterlimit="10"/></g><g transform="translate(-142,-78) scale(1,1)"><g><path fill="none" stroke="none"/><text fill="#000000" stroke="none" font-family="Arial" font-size="13px" font-style="normal" font-weight="bold" text-decoration="none" x="350.12451171875" y="518">RegimeMgmApi</text><path fill="none" stroke="#000000" d="M 448.3544921875 519.5 L 350.12451171875 519.5" stroke-miterlimit="10"/></g></g><g transform="translate(-142,-78) scale(1,1)"><path fill="#C0C0C0" stroke="none" d="M 386.4 562 L 413.84 562 L 425.59999999999997 573.76 L 425.59999999999997 611 L 386.4 611" opacity="0.2"/></g><g transform="translate(-142,-78) scale(1,1)"><path fill="#ff7f00" stroke="none" d="M 379.4 555 L 406.84000000000003 555 L 418.6 566.76 L 418.6 604 L 379.4 604"/></g><g transform="translate(-142,-78) scale(1,1)"><path fill="none" stroke="#000000" d="M 379.4 555 L 406.84000000000003 555 L 418.6 566.76 L 418.6 604 L 379.4 604 L 379.4 555" stroke-miterlimit="10"/></g><g transform="translate(-142,-78) scale(1,1)"><path fill="none" stroke="#000000" d="M 406.84000000000003 555 L 406.84000000000003 566.76 L 418.6 566.76 L 406.84000000000003 555" stroke-miterlimit="10"/></g><g transform="translate(-142,-78) scale(1,1)"><g><path fill="none" stroke="none"/><text fill="#000000" stroke="none" font-family="Arial" font-size="13px" font-style="normal" font-weight="bold" text-decoration="none" x="345.295654296875" y="622">CalcSaldoWorker</text><path fill="none" stroke="#000000" d="M 452.704345703125 623.5 L 345.295654296875 623.5" stroke-miterlimit="10"/></g></g><g transform="translate(-142,-78) scale(1,1)"><path fill="#C0C0C0" stroke="none" d="M 499.639501953125 458 L 527.079501953125 458 L 538.839501953125 469.76 L 538.839501953125 507 L 499.639501953125 507" opacity="0.2"/></g><g transform="translate(-142,-78) scale(1,1)"><path fill="#ff7f00" stroke="none" d="M 492.639501953125 451 L 520.079501953125 451 L 531.839501953125 462.76 L 531.839501953125 500 L 492.639501953125 500"/></g><g transform="translate(-142,-78) scale(1,1)"><path fill="none" stroke="#000000" d="M 492.639501953125 451 L 520.079501953125 451 L 531.839501953125 462.76 L 531.839501953125 500 L 492.639501953125 500 L 492.639501953125 451" stroke-miterlimit="10"/></g><g transform="translate(-142,-78) scale(1,1)"><path fill="none" stroke="#000000" d="M 520.079501953125 451 L 520.079501953125 462.76 L 531.839501953125 462.76 L 520.079501953125 451" stroke-miterlimit="10"/></g><g transform="translate(-142,-78) scale(1,1)"><g><path fill="none" stroke="none"/><text fill="#000000" stroke="none" font-family="Arial" font-size="13px" font-style="normal" font-weight="bold" text-decoration="none" x="468.656494140625" y="518">RegimeUiWeb</text><path fill="none" stroke="#000000" d="M 555.822509765625 519.5 L 468.656494140625 519.5" stroke-miterlimit="10"/></g></g><g transform="translate(-142,-78) scale(1,1)"><path fill="#C0C0C0" stroke="none" d="M 756.639501953125 127 L 784.079501953125 127 L 795.839501953125 138.76000000000002 L 795.839501953125 176 L 756.639501953125 176" opacity="0.2"/></g><g transform="translate(-142,-78) scale(1,1)"><path fill="#ff8056" stroke="none" d="M 749.639501953125 120 L 777.079501953125 120 L 788.839501953125 131.76000000000002 L 788.839501953125 169 L 749.639501953125 169"/></g><g transform="translate(-142,-78) scale(1,1)"><path fill="none" stroke="#000000" d="M 749.639501953125 120 L 777.079501953125 120 L 788.839501953125 131.76000000000002 L 788.839501953125 169 L 749.639501953125 169 L 749.639501953125 120" stroke-miterlimit="10"/></g><g transform="translate(-142,-78) scale(1,1)"><path fill="none" stroke="#000000" d="M 777.079501953125 120 L 777.079501953125 131.76000000000002 L 788.839501953125 131.76000000000002 L 777.079501953125 120" stroke-miterlimit="10"/></g><g transform="translate(-142,-78) scale(1,1)"><g><path fill="none" stroke="none"/><text fill="#000000" stroke="none" font-family="Arial" font-size="13px" font-style="normal" font-weight="bold" text-decoration="none" x="738.180419921875" y="187">NfStorage</text><path fill="none" stroke="#000000" d="M 800.298583984375 188.5 L 738.180419921875 188.5" stroke-miterlimit="10"/></g></g><g transform="translate(-142,-78) scale(1,1)"><path fill="#C0C0C0" stroke="none" d="M 755.639501953125 247 L 783.079501953125 247 L 794.839501953125 258.76 L 794.839501953125 296 L 755.639501953125 296" opacity="0.2"/></g><g transform="translate(-142,-78) scale(1,1)"><path fill="#ff8056" stroke="none" d="M 748.639501953125 240 L 776.079501953125 240 L 787.839501953125 251.76000000000002 L 787.839501953125 289 L 748.639501953125 289"/></g><g transform="translate(-142,-78) scale(1,1)"><path fill="none" stroke="#000000" d="M 748.639501953125 240 L 776.079501953125 240 L 787.839501953125 251.76000000000002 L 787.839501953125 289 L 748.639501953125 289 L 748.639501953125 240" stroke-miterlimit="10"/></g><g transform="translate(-142,-78) scale(1,1)"><path fill="none" stroke="#000000" d="M 776.079501953125 240 L 776.079501953125 251.76000000000002 L 787.839501953125 251.76000000000002 L 776.079501953125 240" stroke-miterlimit="10"/></g><g transform="translate(-142,-78) scale(1,1)"><g><path fill="none" stroke="none"/><text fill="#000000" stroke="none" font-family="Arial" font-size="13px" font-style="normal" font-weight="bold" text-decoration="none" x="727.07177734375" y="307">RegimeNfDW</text><path fill="none" stroke="#000000" d="M 809.4072265625 308.5 L 727.07177734375 308.5" stroke-miterlimit="10"/></g></g><g transform="translate(-142,-78) scale(1,1)"><path fill="#C0C0C0" stroke="none" d="M 755.639501953125 458 L 783.079501953125 458 L 794.839501953125 469.76 L 794.839501953125 507 L 755.639501953125 507" opacity="0.2"/></g><g transform="translate(-142,-78) scale(1,1)"><path fill="#ff8056" stroke="none" d="M 748.639501953125 451 L 776.079501953125 451 L 787.839501953125 462.76 L 787.839501953125 500 L 748.639501953125 500"/></g><g transform="translate(-142,-78) scale(1,1)"><path fill="none" stroke="#000000" d="M 748.639501953125 451 L 776.079501953125 451 L 787.839501953125 462.76 L 787.839501953125 500 L 748.639501953125 500 L 748.639501953125 451" stroke-miterlimit="10"/></g><g transform="translate(-142,-78) scale(1,1)"><path fill="none" stroke="#000000" d="M 776.079501953125 451 L 776.079501953125 462.76 L 787.839501953125 462.76 L 776.079501953125 451" stroke-miterlimit="10"/></g><g transform="translate(-142,-78) scale(1,1)"><g><path fill="none" stroke="none"/><text fill="#000000" stroke="none" font-family="Arial" font-size="13px" font-style="normal" font-weight="bold" text-decoration="none" x="736.094970703125" y="518">RegimeDb</text><path fill="none" stroke="#000000" d="M 800.384033203125 519.5 L 736.094970703125 519.5" stroke-miterlimit="10"/></g></g><g transform="translate(-142,-78) scale(1,1)"><path fill="#C0C0C0" stroke="none" d="M 755.639501953125 562 L 783.079501953125 562 L 794.839501953125 573.76 L 794.839501953125 611 L 755.639501953125 611" opacity="0.2"/></g><g transform="translate(-142,-78) scale(1,1)"><path fill="#ff8056" stroke="none" d="M 748.639501953125 555 L 776.079501953125 555 L 787.839501953125 566.76 L 787.839501953125 604 L 748.639501953125 604"/></g><g transform="translate(-142,-78) scale(1,1)"><path fill="none" stroke="#000000" d="M 748.639501953125 555 L 776.079501953125 555 L 787.839501953125 566.76 L 787.839501953125 604 L 748.639501953125 604 L 748.639501953125 555" stroke-miterlimit="10"/></g><g transform="translate(-142,-78) scale(1,1)"><path fill="none" stroke="#000000" d="M 776.079501953125 555 L 776.079501953125 566.76 L 787.839501953125 566.76 L 776.079501953125 555" stroke-miterlimit="10"/></g><g transform="translate(-142,-78) scale(1,1)"><g><path fill="none" stroke="none"/><text fill="#000000" stroke="none" font-family="Arial" font-size="13px" font-style="normal" font-weight="bold" text-decoration="none" x="741.877685546875" y="622">SaldoDb</text><path fill="none" stroke="#000000" d="M 794.601318359375 623.5 L 741.877685546875 623.5" stroke-miterlimit="10"/></g></g><g transform="translate(-142,-78) scale(1,1)"><g><path fill="none" stroke="none"/><text fill="#000000" stroke="none" font-family="Arial" font-size="13px" font-style="normal" font-weight="normal" text-decoration="none" x="543.9873046875" y="111">Data Delivery</text></g></g><g transform="translate(-142,-78) scale(1,1)"><g><path fill="none" stroke="none"/><text fill="#000000" stroke="none" font-family="Arial" font-size="13px" font-style="normal" font-weight="normal" text-decoration="none" x="534.58642578125" y="231">Regimes Shared</text></g></g><g transform="translate(-142,-78) scale(1,1)"><g><path fill="none" stroke="none"/><text fill="#000000" stroke="none" font-family="Arial" font-size="13px" font-style="normal" font-weight="normal" text-decoration="none" x="513.27734375" y="439">Regimes Demonstração</text></g></g><g transform="translate(-142,-78) scale(1,1)"><g><path fill="none" stroke="none"/><text fill="#000000" stroke="none" font-family="Arial" font-size="13px" font-style="normal" font-weight="normal" text-decoration="none" x="527.0009765625" y="559">Regimes Operação</text></g></g></g></svg>