<svg version="1.1" xmlns="http://www.w3.org/2000/svg" xmlns:xlink="http://www.w3.org/1999/xlink" width="819.63720703125" height="157"><defs/><g><g transform="translate(-38,-54) scale(1,1)"><path fill="#ffffff" stroke="none" d="M 71 64 L 112.63720703125 64 Q 135.63720703125 64 135.63720703125 87 L 135.63720703125 86 Q 135.63720703125 109 112.63720703125 109 L 71 109 Q 48 109 48 86 L 48 87 Q 48 64 71 64 Z"/></g><g transform="translate(-38,-54) scale(1,1)"><path fill="none" stroke="#000000" d="M 71 64 L 112.63720703125 64 Q 135.63720703125 64 135.63720703125 87 L 135.63720703125 86 Q 135.63720703125 109 112.63720703125 109 L 71 109 Q 48 109 48 86 L 48 87 Q 48 64 71 64 Z" stroke-miterlimit="10"/></g><g transform="translate(-38,-54) scale(1,1)"><g><path fill="none" stroke="none"/><text fill="#000000" stroke="none" font-family="Arial" font-size="13px" font-style="normal" font-weight="normal" text-decoration="none" x="69.4208984375" y="85">Usuário</text><text fill="#000000" stroke="none" font-family="Arial" font-size="13px" font-style="normal" font-weight="normal" text-decoration="none" x="66.891357421875" y="98">Inicializa</text></g></g><g transform="translate(-38,-54) scale(1,1)"><rect fill="#ffffff" stroke="none" x="208" y="64" width="176" height="48"/></g><g transform="translate(-38,-54) scale(1,1)"><path fill="none" stroke="#000000" d="M 208 64 L 384 64 L 384 112 L 208 112 L 208 64 Z Z" stroke-miterlimit="10"/></g><g transform="translate(-38,-54) scale(1,1)"><g><path fill="none" stroke="none"/><text fill="#000000" stroke="none" font-family="Arial" font-size="13px" font-style="normal" font-weight="normal" text-decoration="none" x="230.6064453125" y="85">Dispara Mensagem de</text><text fill="#000000" stroke="none" font-family="Arial" font-size="13px" font-style="normal" font-weight="normal" text-decoration="none" x="246.8564453125" y="98">Cálculo de Saldo</text></g></g><g transform="translate(-38,-54) scale(1,1)"><path fill="none" stroke="#000000" d="M 137 86 L 207 87" stroke-miterlimit="10"/></g><g transform="translate(-38,-54) scale(1,1)"><path fill="#000000" stroke="none" d="M 196.77823215875682 91.06392202185604 L 207 87 L 196.89849182387462 82.64574546361013"/></g><g transform="translate(-38,-54) scale(1,1)"><path fill="none" stroke="#000000" d="M 196.77823215875682 91.06392202185604 L 207 87 L 196.89849182387462 82.64574546361013 L 196.77823215875682 91.06392202185604" stroke-miterlimit="10"/></g><g transform="translate(-38,-54) scale(1,1)"><rect fill="#ffffff" stroke="none" x="416" y="72" width="119.4580078125" height="32"/></g><g transform="translate(-38,-54) scale(1,1)"><path fill="none" stroke="#000000" d="M 416 72 L 535.4580078125 72 L 535.4580078125 104 L 416 104 L 416 72 Z Z" stroke-miterlimit="10"/></g><g transform="translate(-38,-54) scale(1,1)"><g><path fill="none" stroke="none"/><text fill="#000000" stroke="none" font-family="Arial" font-size="13px" font-style="normal" font-weight="normal" text-decoration="none" x="425.5" y="93">&lt;calculoIniciado&gt;</text></g></g><g transform="translate(-38,-54) scale(1,1)"><path fill="none" stroke="#000000" d="M 384 88 L 416 88" stroke-miterlimit="10"/></g><g transform="translate(-38,-54) scale(1,1)"><path fill="#000000" stroke="none" d="M 405.83732514237585 92.20951775601598 L 416 88 L 405.83732514237585 83.79048224398402"/></g><g transform="translate(-38,-54) scale(1,1)"><path fill="none" stroke="#000000" d="M 405.83732514237585 92.20951775601598 L 416 88 L 405.83732514237585 83.79048224398402 L 405.83732514237585 92.20951775601598" stroke-miterlimit="10"/></g><g transform="translate(-38,-54) scale(1,1)"><rect fill="#ffffff" stroke="none" x="576" y="72" width="134.62890625" height="32"/></g><g transform="translate(-38,-54) scale(1,1)"><path fill="none" stroke="#000000" d="M 576 72 L 710.62890625 72 L 710.62890625 104 L 576 104 L 576 72 Z Z" stroke-miterlimit="10"/></g><g transform="translate(-38,-54) scale(1,1)"><g><path fill="none" stroke="none"/><text fill="#000000" stroke="none" font-family="Arial" font-size="13px" font-style="normal" font-weight="normal" text-decoration="none" x="585.5" y="93">&lt;calculoEncerrado&gt;</text></g></g><g transform="translate(-38,-54) scale(1,1)"><path fill="none" stroke="#000000" d="M 535 88 L 576 88" stroke-miterlimit="10"/></g><g transform="translate(-38,-54) scale(1,1)"><path fill="#000000" stroke="none" d="M 565.8373251423759 92.20951775601598 L 576 88 L 565.8373251423758 83.79048224398402"/></g><g transform="translate(-38,-54) scale(1,1)"><path fill="none" stroke="#000000" d="M 565.8373251423759 92.20951775601598 L 576 88 L 565.8373251423758 83.79048224398402 L 565.8373251423759 92.20951775601598" stroke-miterlimit="10"/></g><g transform="translate(-38,-54) scale(1,1)"><path fill="#ffffff" stroke="none" d="M 783 64 L 824.63720703125 64 Q 847.63720703125 64 847.63720703125 87 L 847.63720703125 86 Q 847.63720703125 109 824.63720703125 109 L 783 109 Q 760 109 760 86 L 760 87 Q 760 64 783 64 Z"/></g><g transform="translate(-38,-54) scale(1,1)"><path fill="none" stroke="#000000" d="M 783 64 L 824.63720703125 64 Q 847.63720703125 64 847.63720703125 87 L 847.63720703125 86 Q 847.63720703125 109 824.63720703125 109 L 783 109 Q 760 109 760 86 L 760 87 Q 760 64 783 64 Z" stroke-miterlimit="10"/></g><g transform="translate(-38,-54) scale(1,1)"><g><path fill="none" stroke="none"/><text fill="#000000" stroke="none" font-family="Arial" font-size="13px" font-style="normal" font-weight="normal" text-decoration="none" x="781.05908203125" y="85">Encerra</text><text fill="#000000" stroke="none" font-family="Arial" font-size="13px" font-style="normal" font-weight="normal" text-decoration="none" x="782.141357421875" y="98">Cálculo</text></g></g><g transform="translate(-38,-54) scale(1,1)"><path fill="none" stroke="#000000" d="M 711 88 L 760 88" stroke-miterlimit="10"/></g><g transform="translate(-38,-54) scale(1,1)"><path fill="#000000" stroke="none" d="M 749.8373251423759 92.20951775601598 L 760 88 L 749.8373251423758 83.79048224398402"/></g><g transform="translate(-38,-54) scale(1,1)"><path fill="none" stroke="#000000" d="M 749.8373251423759 92.20951775601598 L 760 88 L 749.8373251423758 83.79048224398402 L 749.8373251423759 92.20951775601598" stroke-miterlimit="10"/></g><g transform="translate(-38,-54) scale(1,1)"><path fill="#ffffff" stroke="none" d="M 248 160 L 336 160 L 346 170 L 346 191 L 248 191 L 248 160"/></g><g transform="translate(-38,-54) scale(1,1)"><path fill="none" stroke="#000000" d="M 248 160 L 336 160 L 346 170 L 346 191 L 248 191 L 248 160 L 248 160" stroke-miterlimit="10"/></g><g transform="translate(-38,-54) scale(1,1)"><path fill="none" stroke="#000000" d="M 336 160 L 336 170 L 346 170 L 336 160" stroke-miterlimit="10"/></g><g transform="translate(-38,-54) scale(1,1)"><g><path fill="none" stroke="none"/><text fill="#000000" stroke="none" font-family="Arial" font-size="13px" font-style="normal" font-weight="normal" text-decoration="none" x="253" y="175">MessageBus</text></g></g><g transform="translate(-38,-54) scale(1,1)"><path fill="none" stroke="#000000" d="M 296 113 L 297 159" stroke-miterlimit="10" stroke-dasharray="3"/></g><g transform="translate(-38,-54) scale(1,1)"><path fill="#ffffff" stroke="none" d="M 504 152 L 592 152 L 602 162 L 602 200 L 504 200 L 504 152"/></g><g transform="translate(-38,-54) scale(1,1)"><path fill="none" stroke="#000000" d="M 504 152 L 592 152 L 602 162 L 602 200 L 504 200 L 504 152 L 504 152" stroke-miterlimit="10"/></g><g transform="translate(-38,-54) scale(1,1)"><path fill="none" stroke="#000000" d="M 592 152 L 592 162 L 602 162 L 592 152" stroke-miterlimit="10"/></g><g transform="translate(-38,-54) scale(1,1)"><g><path fill="none" stroke="none"/><text fill="#000000" stroke="none" font-family="Arial" font-size="13px" font-style="normal" font-weight="normal" text-decoration="none" x="509" y="167">State Machine</text></g></g><g transform="translate(-38,-54) scale(1,1)"><path fill="none" stroke="#000000" d="M 490 105 L 531 151" stroke-miterlimit="10" stroke-dasharray="3"/></g><g transform="translate(-38,-54) scale(1,1)"><path fill="none" stroke="#000000" d="M 626 105 L 579 151" stroke-miterlimit="10" stroke-dasharray="3"/></g></g></svg>