<svg version="1.1" xmlns="http://www.w3.org/2000/svg" xmlns:xlink="http://www.w3.org/1999/xlink" width="1051.63720703125" height="278"><defs/><g><g transform="translate(-22,-22) scale(1,1)"><path fill="#ffffff" stroke="none" d="M 55 96 L 96.63720703125 96 Q 119.63720703125 96 119.63720703125 119 L 119.63720703125 118 Q 119.63720703125 141 96.63720703125 141 L 55 141 Q 32 141 32 118 L 32 119 Q 32 96 55 96 Z"/></g><g transform="translate(-22,-22) scale(1,1)"><path fill="none" stroke="#000000" d="M 55 96 L 96.63720703125 96 Q 119.63720703125 96 119.63720703125 119 L 119.63720703125 118 Q 119.63720703125 141 96.63720703125 141 L 55 141 Q 32 141 32 118 L 32 119 Q 32 96 55 96 Z" stroke-miterlimit="10"/></g><g transform="translate(-22,-22) scale(1,1)"><g><path fill="none" stroke="none"/><text fill="#000000" stroke="none" font-family="Arial" font-size="13px" font-style="normal" font-weight="normal" text-decoration="none" x="44.023193359375" y="117">Ao receber</text><text fill="#000000" stroke="none" font-family="Arial" font-size="13px" font-style="normal" font-weight="normal" text-decoration="none" x="58.838623046875" y="130">Notas</text></g></g><g transform="translate(-22,-22) scale(1,1)"><path fill="#ffffff" stroke="none" d="M 96 32 L 184 32 L 194 42 L 194 81 L 96 81 L 96 32"/></g><g transform="translate(-22,-22) scale(1,1)"><path fill="none" stroke="#000000" d="M 96 32 L 184 32 L 194 42 L 194 81 L 96 81 L 96 32 L 96 32" stroke-miterlimit="10"/></g><g transform="translate(-22,-22) scale(1,1)"><path fill="none" stroke="#000000" d="M 184 32 L 184 42 L 194 42 L 184 32" stroke-miterlimit="10"/></g><g transform="translate(-22,-22) scale(1,1)"><g><path fill="none" stroke="none"/><text fill="#000000" stroke="none" font-family="Arial" font-size="13px" font-style="normal" font-weight="normal" text-decoration="none" x="101" y="47">Recebe Notas</text><text fill="#000000" stroke="none" font-family="Arial" font-size="13px" font-style="normal" font-weight="normal" text-decoration="none" x="101" y="60">Via Grpc</text></g></g><g transform="translate(-22,-22) scale(1,1)"><path fill="none" stroke="#000000" d="M 101 95 L 115 83" stroke-miterlimit="10" stroke-dasharray="3"/></g><g transform="translate(-22,-22) scale(1,1)"><rect fill="#ffffff" stroke="none" x="176" y="96" width="96" height="64"/></g><g transform="translate(-22,-22) scale(1,1)"><path fill="none" stroke="#000000" d="M 176 96 L 272 96 L 272 160 L 176 160 L 176 96 Z Z" stroke-miterlimit="10"/></g><g transform="translate(-22,-22) scale(1,1)"><g><path fill="none" stroke="none"/><text fill="#000000" stroke="none" font-family="Arial" font-size="13px" font-style="normal" font-weight="normal" text-decoration="none" x="204.490478515625" y="117">Fila de</text><text fill="#000000" stroke="none" font-family="Arial" font-size="13px" font-style="normal" font-weight="normal" text-decoration="none" x="190.02734375" y="130">Ingestão de</text><text fill="#000000" stroke="none" font-family="Arial" font-size="13px" font-style="normal" font-weight="normal" text-decoration="none" x="215.33544921875" y="143">NF</text></g></g><g transform="translate(-22,-22) scale(1,1)"><path fill="none" stroke="#000000" d="M 121 121 L 175 125" stroke-miterlimit="10"/></g><g transform="translate(-22,-22) scale(1,1)"><path fill="#000000" stroke="none" d="M 164.55412789361998 128.44728239881093 L 175 125 L 165.17605623730705 120.05124975903551"/></g><g transform="translate(-22,-22) scale(1,1)"><path fill="none" stroke="#000000" d="M 164.55412789361998 128.44728239881093 L 175 125 L 165.17605623730705 120.05124975903551 L 164.55412789361998 128.44728239881093" stroke-miterlimit="10"/></g><g transform="translate(-22,-22) scale(1,1)"><rect fill="#ffffff" stroke="none" x="448" y="48" width="112" height="32"/></g><g transform="translate(-22,-22) scale(1,1)"><path fill="none" stroke="#000000" d="M 448 48 L 560 48 L 560 80 L 448 80 L 448 48 Z Z" stroke-miterlimit="10"/></g><g transform="translate(-22,-22) scale(1,1)"><g><path fill="none" stroke="none"/><text fill="#000000" stroke="none" font-family="Arial" font-size="13px" font-style="normal" font-weight="normal" text-decoration="none" x="471.119140625" y="69">Exportação</text></g></g><g transform="translate(-22,-22) scale(1,1)"><rect fill="#ffffff" stroke="none" x="448" y="112" width="112" height="32"/></g><g transform="translate(-22,-22) scale(1,1)"><path fill="none" stroke="#000000" d="M 448 112 L 560 112 L 560 144 L 448 144 L 448 112 Z Z" stroke-miterlimit="10"/></g><g transform="translate(-22,-22) scale(1,1)"><g><path fill="none" stroke="none"/><text fill="#000000" stroke="none" font-family="Arial" font-size="13px" font-style="normal" font-weight="normal" text-decoration="none" x="471.484130859375" y="133">Importação</text></g></g><g transform="translate(-22,-22) scale(1,1)"><rect fill="#ffffff" stroke="none" x="448" y="184" width="112" height="32"/></g><g transform="translate(-22,-22) scale(1,1)"><path fill="none" stroke="#000000" d="M 448 184 L 560 184 L 560 216 L 448 216 L 448 184 Z Z" stroke-miterlimit="10"/></g><g transform="translate(-22,-22) scale(1,1)"><g><path fill="none" stroke="none"/><text fill="#000000" stroke="none" font-family="Arial" font-size="13px" font-style="normal" font-weight="normal" text-decoration="none" x="459.918701171875" y="205">Nacionalização</text></g></g><g transform="translate(-22,-22) scale(1,1)"><path fill="#ffffff" stroke="none" d="M 352 126.5 C 352 118.4918704 358.4918704 112 366.5 112 C 374.5081296 112 381 118.4918704 381 126.5 C 381 134.5081296 374.5081296 141 366.5 141 C 358.4918704 141 352 134.5081296 352 126.5 Z"/></g><g transform="translate(-22,-22) scale(1,1)"><path fill="none" stroke="#000000" d="M 352 126.5 C 352 118.4918704 358.4918704 112 366.5 112 C 374.5081296 112 381 118.4918704 381 126.5 C 381 134.5081296 374.5081296 141 366.5 141 C 358.4918704 141 352 134.5081296 352 126.5 Z" stroke-miterlimit="10"/></g><g transform="translate(-22,-22) scale(1,1)"><path fill="none" stroke="#000000" d="M 366 112 L 366 141" stroke-miterlimit="10"/></g><g transform="translate(-22,-22) scale(1,1)"><path fill="none" stroke="#000000" d="M 352 126 L 381 126" stroke-miterlimit="10"/></g><g transform="translate(-22,-22) scale(1,1)"><path fill="#ffffff" stroke="none" d="M 624 126.5 C 624 118.4918704 630.4918704 112 638.5 112 C 646.5081296 112 653 118.4918704 653 126.5 C 653 134.5081296 646.5081296 141 638.5 141 C 630.4918704 141 624 134.5081296 624 126.5 Z"/></g><g transform="translate(-22,-22) scale(1,1)"><path fill="none" stroke="#000000" d="M 624 126.5 C 624 118.4918704 630.4918704 112 638.5 112 C 646.5081296 112 653 118.4918704 653 126.5 C 653 134.5081296 646.5081296 141 638.5 141 C 630.4918704 141 624 134.5081296 624 126.5 Z" stroke-miterlimit="10"/></g><g transform="translate(-22,-22) scale(1,1)"><path fill="none" stroke="#000000" d="M 627 115 L 649 137" stroke-miterlimit="10"/></g><g transform="translate(-22,-22) scale(1,1)"><path fill="none" stroke="#000000" d="M 649 115 L 627 137" stroke-miterlimit="10"/></g><g transform="translate(-22,-22) scale(1,1)"><path fill="none" stroke="#000000" d="M 272 125 L 352 125" stroke-miterlimit="10"/></g><g transform="translate(-22,-22) scale(1,1)"><path fill="#000000" stroke="none" d="M 341.83732514237585 129.209517756016 L 352 125 L 341.83732514237585 120.79048224398402"/></g><g transform="translate(-22,-22) scale(1,1)"><path fill="none" stroke="#000000" d="M 341.83732514237585 129.209517756016 L 352 125 L 341.83732514237585 120.79048224398402 L 341.83732514237585 129.209517756016" stroke-miterlimit="10"/></g><g transform="translate(-22,-22) scale(1,1)"><g><path fill="none" stroke="none"/><text fill="#000000" stroke="none" font-family="Arial" font-size="13px" font-style="normal" font-weight="normal" text-decoration="none" x="273.5" y="115">Classifica NF</text></g></g><g transform="translate(-22,-22) scale(1,1)"><path fill="none" stroke="#000000" d="M 382 119 L 466 81" stroke-miterlimit="10"/></g><g transform="translate(-22,-22) scale(1,1)"><path fill="#000000" stroke="none" d="M 458.47573438660424 89.02405302693536 L 466 81 L 455.0056784533727 81.35340306926555"/></g><g transform="translate(-22,-22) scale(1,1)"><path fill="none" stroke="#000000" d="M 458.47573438660424 89.02405302693536 L 466 81 L 455.0056784533727 81.35340306926555 L 458.47573438660424 89.02405302693536" stroke-miterlimit="10"/></g><g transform="translate(-22,-22) scale(1,1)"><path fill="none" stroke="#000000" d="M 382 126 L 447 127" stroke-miterlimit="10"/></g><g transform="translate(-22,-22) scale(1,1)"><path fill="#000000" stroke="none" d="M 436.7737734634674 131.05268933222337 L 447 127 L 436.90328176121045 122.63464997892552"/></g><g transform="translate(-22,-22) scale(1,1)"><path fill="none" stroke="#000000" d="M 436.7737734634674 131.05268933222337 L 447 127 L 436.90328176121045 122.63464997892552 L 436.7737734634674 131.05268933222337" stroke-miterlimit="10"/></g><g transform="translate(-22,-22) scale(1,1)"><path fill="none" stroke="#000000" d="M 382 135 L 472 183" stroke-miterlimit="10"/></g><g transform="translate(-22,-22) scale(1,1)"><path fill="#000000" stroke="none" d="M 461.0519844169123 181.93184514583803 L 472 183 L 465.01388348139795 174.50328439992745"/></g><g transform="translate(-22,-22) scale(1,1)"><path fill="none" stroke="#000000" d="M 461.0519844169123 181.93184514583803 L 472 183 L 465.01388348139795 174.50328439992745 L 461.0519844169123 181.93184514583803" stroke-miterlimit="10"/></g><g transform="translate(-22,-22) scale(1,1)"><path fill="none" stroke="#000000" d="M 541 81 L 623 119" stroke-miterlimit="10"/></g><g transform="translate(-22,-22) scale(1,1)"><path fill="#000000" stroke="none" d="M 612.0093592118969 118.54633154519497 L 623 119 L 615.5492354099499 110.9076513283438"/></g><g transform="translate(-22,-22) scale(1,1)"><path fill="none" stroke="#000000" d="M 612.0093592118969 118.54633154519497 L 623 119 L 615.5492354099499 110.9076513283438 L 612.0093592118969 118.54633154519497" stroke-miterlimit="10"/></g><g transform="translate(-22,-22) scale(1,1)"><path fill="none" stroke="#000000" d="M 561 127 L 623 126" stroke-miterlimit="10"/></g><g transform="translate(-22,-22) scale(1,1)"><path fill="#000000" stroke="none" d="M 612.9065333905545 130.37286311288264 L 623 126 L 612.7707601544613 121.95492247510097"/></g><g transform="translate(-22,-22) scale(1,1)"><path fill="none" stroke="#000000" d="M 612.9065333905545 130.37286311288264 L 623 126 L 612.7707601544613 121.95492247510097 L 612.9065333905545 130.37286311288264" stroke-miterlimit="10"/></g><g transform="translate(-22,-22) scale(1,1)"><path fill="none" stroke="#000000" d="M 535 183 L 623 134" stroke-miterlimit="10"/></g><g transform="translate(-22,-22) scale(1,1)"><path fill="#000000" stroke="none" d="M 616.16885736877 142.62180319607162 L 623 134 L 612.0731172162066 135.2661882282028"/></g><g transform="translate(-22,-22) scale(1,1)"><path fill="none" stroke="#000000" d="M 616.16885736877 142.62180319607162 L 623 134 L 612.0731172162066 135.2661882282028 L 616.16885736877 142.62180319607162" stroke-miterlimit="10"/></g><g transform="translate(-22,-22) scale(1,1)"><rect fill="#ffffff" stroke="none" x="736" y="96" width="144" height="64"/></g><g transform="translate(-22,-22) scale(1,1)"><path fill="none" stroke="#000000" d="M 736 96 L 880 96 L 880 160 L 736 160 L 736 96 Z Z" stroke-miterlimit="10"/></g><g transform="translate(-22,-22) scale(1,1)"><g><path fill="none" stroke="none"/><text fill="#000000" stroke="none" font-family="Arial" font-size="13px" font-style="normal" font-weight="normal" text-decoration="none" x="758.13916015625" y="117">Monitora Data de</text><text fill="#000000" stroke="none" font-family="Arial" font-size="13px" font-style="normal" font-weight="normal" text-decoration="none" x="752.724609375" y="130">Atualização NF por</text><text fill="#000000" stroke="none" font-family="Arial" font-size="13px" font-style="normal" font-weight="normal" text-decoration="none" x="789.2109375" y="143">cliente</text></g></g><g transform="translate(-22,-22) scale(1,1)"><path fill="none" stroke="#000000" d="M 653 126 L 736 126" stroke-miterlimit="10"/></g><g transform="translate(-22,-22) scale(1,1)"><path fill="#000000" stroke="none" d="M 725.8373251423759 130.209517756016 L 736 126 L 725.8373251423758 121.79048224398402"/></g><g transform="translate(-22,-22) scale(1,1)"><path fill="none" stroke="#000000" d="M 725.8373251423759 130.209517756016 L 736 126 L 725.8373251423758 121.79048224398402 L 725.8373251423759 130.209517756016" stroke-miterlimit="10"/></g><g transform="translate(-22,-22) scale(1,1)"><path fill="#ffffff" stroke="none" d="M 999 104 L 1040.63720703125 104 Q 1063.63720703125 104 1063.63720703125 127 L 1063.63720703125 126 Q 1063.63720703125 149 1040.63720703125 149 L 999 149 Q 976 149 976 126 L 976 127 Q 976 104 999 104 Z"/></g><g transform="translate(-22,-22) scale(1,1)"><path fill="none" stroke="#000000" d="M 999 104 L 1040.63720703125 104 Q 1063.63720703125 104 1063.63720703125 127 L 1063.63720703125 126 Q 1063.63720703125 149 1040.63720703125 149 L 999 149 Q 976 149 976 126 L 976 127 Q 976 104 999 104 Z" stroke-miterlimit="10"/></g><g transform="translate(-22,-22) scale(1,1)"><g><path fill="none" stroke="none"/><text fill="#000000" stroke="none" font-family="Arial" font-size="13px" font-style="normal" font-weight="normal" text-decoration="none" x="997.05908203125" y="125">Encerra</text><text fill="#000000" stroke="none" font-family="Arial" font-size="13px" font-style="normal" font-weight="normal" text-decoration="none" x="994.8818359375" y="138">Ingestão</text></g></g><g transform="translate(-22,-22) scale(1,1)"><path fill="none" stroke="#000000" d="M 880 126 L 976 126" stroke-miterlimit="10"/></g><g transform="translate(-22,-22) scale(1,1)"><path fill="#000000" stroke="none" d="M 965.8373251423759 130.209517756016 L 976 126 L 965.8373251423758 121.79048224398402"/></g><g transform="translate(-22,-22) scale(1,1)"><path fill="none" stroke="#000000" d="M 965.8373251423759 130.209517756016 L 976 126 L 965.8373251423758 121.79048224398402 L 965.8373251423759 130.209517756016" stroke-miterlimit="10"/></g><g transform="translate(-22,-22) scale(1,1)"><path fill="#ffffff" stroke="none" d="M 176 208 L 274.33984375 208 L 284.33984375 218 L 284.33984375 257 L 176 257 L 176 208"/></g><g transform="translate(-22,-22) scale(1,1)"><path fill="none" stroke="#000000" d="M 176 208 L 274.33984375 208 L 284.33984375 218 L 284.33984375 257 L 176 257 L 176 208 L 176 208" stroke-miterlimit="10"/></g><g transform="translate(-22,-22) scale(1,1)"><path fill="none" stroke="#000000" d="M 274.33984375 208 L 274.33984375 218 L 284.33984375 218 L 274.33984375 208" stroke-miterlimit="10"/></g><g transform="translate(-22,-22) scale(1,1)"><g><path fill="none" stroke="none"/><text fill="#000000" stroke="none" font-family="Arial" font-size="13px" font-style="normal" font-weight="normal" text-decoration="none" x="181" y="223">(1) Ex</text><text fill="#000000" stroke="none" font-family="Arial" font-size="13px" font-style="normal" font-weight="normal" text-decoration="none" x="181" y="236">Balancemaneto</text><text fill="#000000" stroke="none" font-family="Arial" font-size="13px" font-style="normal" font-weight="normal" text-decoration="none" x="181" y="249">de carga</text></g></g><g transform="translate(-22,-22) scale(1,1)"><path fill="none" stroke="#000000" d="M 226 161 L 229 207" stroke-miterlimit="10" stroke-dasharray="3"/></g><g transform="translate(-22,-22) scale(1,1)"><path fill="#ffffff" stroke="none" d="M 336 240 L 424 240 L 434 250 L 434 288 L 336 288 L 336 240"/></g><g transform="translate(-22,-22) scale(1,1)"><path fill="none" stroke="#000000" d="M 336 240 L 424 240 L 434 250 L 434 288 L 336 288 L 336 240 L 336 240" stroke-miterlimit="10"/></g><g transform="translate(-22,-22) scale(1,1)"><path fill="none" stroke="#000000" d="M 424 240 L 424 250 L 434 250 L 424 240" stroke-miterlimit="10"/></g><g transform="translate(-22,-22) scale(1,1)"><g><path fill="none" stroke="none"/><text fill="#000000" stroke="none" font-family="Arial" font-size="13px" font-style="normal" font-weight="normal" text-decoration="none" x="341" y="255">(2) Ex Fan-Out</text></g></g><g transform="translate(-22,-22) scale(1,1)"><path fill="none" stroke="#000000" d="M 368 142 L 382 239" stroke-miterlimit="10" stroke-dasharray="3"/></g><g transform="translate(-22,-22) scale(1,1)"><path fill="#ffffff" stroke="none" d="M 584 240 L 672 240 L 682 250 L 682 288 L 584 288 L 584 240"/></g><g transform="translate(-22,-22) scale(1,1)"><path fill="none" stroke="#000000" d="M 584 240 L 672 240 L 682 250 L 682 288 L 584 288 L 584 240 L 584 240" stroke-miterlimit="10"/></g><g transform="translate(-22,-22) scale(1,1)"><path fill="none" stroke="#000000" d="M 672 240 L 672 250 L 682 250 L 672 240" stroke-miterlimit="10"/></g><g transform="translate(-22,-22) scale(1,1)"><g><path fill="none" stroke="none"/><text fill="#000000" stroke="none" font-family="Arial" font-size="13px" font-style="normal" font-weight="normal" text-decoration="none" x="589" y="255">(3) Ex Fan-In</text></g></g><g transform="translate(-22,-22) scale(1,1)"><path fill="none" stroke="#000000" d="M 637 142 L 634 239" stroke-miterlimit="10" stroke-dasharray="3"/></g><g transform="translate(-22,-22) scale(1,1)"><path fill="#ffffff" stroke="none" d="M 752 240 L 840 240 L 850 250 L 850 289 L 752 289 L 752 240"/></g><g transform="translate(-22,-22) scale(1,1)"><path fill="none" stroke="#000000" d="M 752 240 L 840 240 L 850 250 L 850 289 L 752 289 L 752 240 L 752 240" stroke-miterlimit="10"/></g><g transform="translate(-22,-22) scale(1,1)"><path fill="none" stroke="#000000" d="M 840 240 L 840 250 L 850 250 L 840 240" stroke-miterlimit="10"/></g><g transform="translate(-22,-22) scale(1,1)"><g><path fill="none" stroke="none"/><text fill="#000000" stroke="none" font-family="Arial" font-size="13px" font-style="normal" font-weight="normal" text-decoration="none" x="757" y="255">Controla o</text><text fill="#000000" stroke="none" font-family="Arial" font-size="13px" font-style="normal" font-weight="normal" text-decoration="none" x="757" y="268">FLuxo por</text><text fill="#000000" stroke="none" font-family="Arial" font-size="13px" font-style="normal" font-weight="normal" text-decoration="none" x="757" y="281">Sessions</text></g></g><g transform="translate(-22,-22) scale(1,1)"><path fill="none" stroke="#000000" d="M 806 161 L 802 239" stroke-miterlimit="10" stroke-dasharray="3"/></g></g></svg>